<svg width="222" height="234" viewBox="0 0 222 234" fill="none" xmlns="http://www.w3.org/2000/svg">
<path d="M116.087 104.343C124.979 104.27 133.871 104.214 142.762 104.18C146.893 104.163 151.022 104.141 155.152 104.105C159.148 104.07 163.143 104.052 167.139 104.044C168.653 104.038 170.168 104.027 171.682 104.009C187.107 103.841 202.16 105.823 213.837 116.925C220.617 124.218 222.192 132.758 221.982 142.496C221.38 148.657 219.115 153.886 215.347 158.802C214.868 159.439 214.389 160.076 213.896 160.732C207.448 168.27 196.315 171.477 186.76 173.008C184.297 173.162 181.833 173.211 179.366 173.258C178.639 173.275 177.913 173.291 177.165 173.308C174.805 173.36 172.445 173.406 170.085 173.452C168.468 173.486 166.85 173.52 165.233 173.554C152.82 173.804 140.414 173.898 127.999 173.798C127.969 174.956 127.969 174.956 127.938 176.138C127.863 179.01 127.784 181.881 127.703 184.752C127.669 185.994 127.636 187.235 127.604 188.477C127.558 190.264 127.507 192.051 127.456 193.837C127.436 194.667 127.436 194.667 127.416 195.514C127.337 198.108 127.198 200.515 126.411 203C123.023 201.784 121.337 199.254 119.264 196.489C115.386 191.445 111.319 186.608 107.135 181.813C106.777 181.399 106.419 180.985 106.051 180.559C105.315 179.716 104.567 178.884 103.81 178.061C101.578 175.574 101 174.902 101 171.43C101.662 171.2 102.325 170.97 103.007 170.733C112.845 167.171 119.392 163.592 124.034 153.989C124.773 152.488 124.773 152.488 126.411 150.12C130.051 149.355 133.623 149.227 137.335 149.206C138.369 149.198 139.402 149.19 140.467 149.182C141.284 149.178 141.284 149.178 142.117 149.173C143.837 149.164 145.556 149.149 147.276 149.132C152.161 149.083 157.047 149.04 161.933 149.014C164.931 148.997 167.928 148.97 170.926 148.934C172.063 148.923 173.201 148.916 174.338 148.914C175.931 148.91 177.523 148.89 179.115 148.87C180.47 148.861 180.47 148.861 181.853 148.851C185.257 148.434 187.782 147.106 190.582 145.187C192.696 142.09 192.426 138.863 191.773 135.321C190.634 132.517 190.253 131.695 187.555 130.389C181.154 128.584 174.846 128.537 168.245 128.483C167.081 128.469 165.916 128.453 164.751 128.437C161.708 128.397 158.665 128.365 155.622 128.336C152.508 128.304 149.394 128.264 146.28 128.224C140.186 128.148 134.092 128.082 127.999 128.021C125.73 122.791 125.73 122.791 124.711 120.135C122.801 115.202 120.634 111.312 117.164 107.297C116.087 105.922 116.087 105.922 116.087 104.343Z" fill="white"/>
<path d="M20.1351 101.182C20.9679 101.178 21.8007 101.174 22.6588 101.17C25.4069 101.158 28.155 101.152 30.9031 101.148C32.8194 101.143 34.7356 101.138 36.6519 101.134C40.6681 101.125 44.6843 101.12 48.7005 101.117C53.8346 101.113 58.9685 101.093 64.1026 101.07C68.061 101.055 72.0193 101.051 75.9778 101.05C77.8699 101.047 79.762 101.041 81.6541 101.03C84.307 101.016 86.9596 101.017 89.6125 101.023C90.3865 101.015 91.1604 101.008 91.9577 101C99.7296 101.048 106.839 102.7 112.518 108.447C120.295 117.061 121.995 126.246 121.676 137.745C121.236 146.106 118.743 152.358 112.99 158.334C110.424 160.584 107.919 162.089 104.748 163.246C104.028 163.521 103.308 163.796 102.566 164.08C99.6405 164.98 96.7443 165.426 93.7219 165.793C92.9013 165.898 92.9013 165.898 92.0642 166.006C90.7298 166.177 89.3948 166.342 88.0596 166.506C96.3326 177.43 104.875 188.117 113.611 198.655C117.07 202.832 135.459 223.066 138.821 227.325C139.412 228.048 140.003 228.771 140.612 229.515C142 231.4 142 231.4 142 233.03C137.286 234.177 132.586 233.96 127.779 233.857C126.107 233.845 124.449 233.905 122.778 233.975C118.447 234.065 114.794 234.053 111.131 231.381C109.412 229.479 107.864 227.546 106.398 225.433C105.056 223.51 88.6207 205.666 87.1894 203.811C86.4439 202.843 85.7031 201.871 84.9671 200.896C82.0444 197.029 78.8989 193.427 75.6548 189.839C73.1624 187.024 70.8445 184.083 68.5149 181.126C66.3596 178.425 64.154 175.772 61.9338 173.127C61.5321 172.648 61.1305 172.169 60.7167 171.675C59.9033 170.705 59.09 169.735 58.2765 168.765C48.4198 156.999 48.4198 156.999 43.904 150.863C42.8046 149.37 42.8046 149.37 41.4702 148.177C40.1712 146.716 39.9862 145.592 39.5828 143.688C46.7867 143.034 53.9493 142.717 61.1794 142.616C62.2055 142.599 63.2316 142.582 64.2888 142.564C66.9787 142.52 69.6686 142.479 72.3585 142.44C75.1186 142.398 77.8787 142.353 80.6388 142.308C86.0262 142.221 91.4138 142.139 96.8013 142.058C99.4325 136.851 99.9428 133.153 98.6391 127.441C97.2186 125.152 96.1537 124.917 93.6225 124.131C91.415 123.974 89.2879 123.899 87.0814 123.907C86.4335 123.903 85.7857 123.898 85.1182 123.894C82.9839 123.883 80.8499 123.884 78.7156 123.885C77.2304 123.882 75.7451 123.879 74.2598 123.875C71.1508 123.869 68.0419 123.869 64.9329 123.873C60.9448 123.878 56.9569 123.864 52.9688 123.845C49.9036 123.833 46.8386 123.833 43.7734 123.835C42.3026 123.835 40.8317 123.83 39.3609 123.822C37.3081 123.812 35.2559 123.818 33.203 123.827C32.5937 123.821 31.9843 123.815 31.3564 123.808C28.0857 123.819 28.0857 123.819 25.2795 125.372C25.0168 125.769 24.7541 126.166 24.4834 126.575C20.0634 121.814 16.0332 116.838 12.1656 111.601C11.7458 111.039 11.3261 110.477 10.8936 109.898C10.502 109.362 10.1104 108.825 9.70695 108.272C9.35711 107.794 9.00727 107.317 8.64683 106.825C7.72541 105.271 7.34054 103.905 7 102.128C11.3912 101.186 15.6712 101.187 20.1351 101.182Z" fill="white"/>
<path d="M118.097 7.80256C119.03 8.99178 119.963 11.0134 119.963 12.2026C119.963 14.9378 116.365 18.8622 113.699 18.8622C110.9 18.8622 111.566 23.5001 116.098 35.6301C120.897 48.7115 123.962 53.4683 129.96 57.6306L134.359 60.6036L141.424 57.3927C149.155 53.944 161.817 43.2411 166.216 36.4626C169.015 32.1814 169.015 32.0625 166.483 30.0408C163.017 27.1867 163.284 24.2137 167.549 21.2406C173.68 16.9595 181.678 20.0514 181.012 26.4732C180.745 29.3273 179.545 30.6354 176.213 32.1814C170.348 34.6787 170.748 34.2031 168.615 42.2897C166.083 51.3277 166.216 56.5603 169.015 61.6739C173.814 70.4741 185.01 69.1659 196.74 58.463C202.338 53.3494 203.671 51.5656 202.605 50.3764C201.539 49.1872 201.539 48.1168 202.472 46.333C204.471 43.2411 208.47 42.1708 211.802 44.0735C216.867 46.8087 214.601 53.3494 208.736 53.3494C203.671 53.4683 182.178 80.5098 178.446 90.9749C177.779 92.9965 173.814 91.4042 109.967 91.4042H41.5873L39.4547 86.8852C36.3889 80.2256 29.0578 69.4038 25.3256 65.5983C23.4595 63.8145 20.2605 60.2468 18.1278 57.7495C15.8618 55.0143 13.196 53.3494 11.4632 53.3494C5.33171 53.3494 3.06573 46.9276 8.13086 43.9546C12.5295 41.5762 17.3281 44.3114 17.3281 49.1872C17.3281 53.5872 24.126 60.9604 31.9903 65.1226C37.322 67.9767 44.7864 68.3335 48.5186 65.8361C51.8509 63.5766 53.3171 51.5656 51.451 42.2897C50.1181 35.5112 49.5849 34.9166 44.6531 32.6571C40.3877 30.6354 39.1881 29.4462 38.9215 26.4732C38.3883 22.0731 41.1875 19.6947 46.6525 19.6947C51.1844 19.6947 55.983 23.0245 55.983 25.9975C55.983 27.0678 54.7833 28.9705 53.3171 30.1597C50.7845 32.1814 50.7845 32.3003 56.916 40.1491C64.9136 50.1385 70.112 54.8954 77.1765 57.9873L82.6415 60.4847L87.8399 58.1062C93.4382 55.6089 97.9702 51.2088 99.3031 47.0466C99.8363 45.6195 100.636 43.36 101.302 42.0519C103.302 38.1275 106.368 29.2084 107.301 24.8083C108.1 21.1217 107.701 20.2893 104.102 17.9109C98.3701 14.2243 99.0365 7.80254 105.301 5.42411C108.634 4.11598 116.098 5.54306 118.097 7.80256Z" fill="white"/>
</svg>
